# xmcd CD database file
#
# Track frame offsets:
#	150
#	12067
#	36896
#	69410
#	98942
#	115971
#	144411
#	171207
#	198229
#	221106
#
# Disc length: 3211 seconds
#
# Revision: 1
# Processed by: cddbd v1.5.2PL0 Copyright (c) Steve Scherf et al.
# Submitted via: CDex 1.70beta2
#
DISCID=8a0c890a
DTITLE=Jean-Christophe Beney - Pop-up
DYEAR=2007
DGENRE=Jazz
TTITLE0=Spacious
TTITLE1=Bubbles
TTITLE2=Chinese Checkers
TTITLE3=Pop-up
TTITLE4=Punjari
TTITLE5=Lynatik
TTITLE6=Lil'Ly
TTITLE7=White Sherbrooke
TTITLE8=October
TTITLE9=Eviv Bulgroz
EXTD=YEAR: 2007
EXTT0=
EXTT1=
EXTT2=
EXTT3=
EXTT4=
EXTT5=
EXTT6=
EXTT7=
EXTT8=
EXTT9=
PLAYORDER=
